<svg width="512" height="512" viewBox="0 0 512 512" fill="none" xmlns="http://www.w3.org/2000/svg">
  <rect width="512" height="512" fill="#15151A"/>
  <rect x="80" y="388" width="352" height="42" rx="10" fill="#F2ECE2"/>
  <rect x="111" y="351" width="290" height="35" rx="8" fill="#F2ECE2"/>
  <rect x="127" y="329" width="258" height="22" rx="6" fill="#D8CEC0"/>
  <path d="M96 184H416L386 259H126L96 184Z" fill="#F2ECE2"/>
  <path d="M124 166H388L362 126H150L124 166Z" fill="#D8CEC0"/>
  <rect x="149" y="258" width="39" height="94" rx="8" fill="#F2ECE2"/>
  <rect x="216" y="258" width="39" height="94" rx="8" fill="#F2ECE2"/>
  <rect x="283" y="258" width="39" height="94" rx="8" fill="#F2ECE2"/>
  <rect x="350" y="258" width="39" height="94" rx="8" fill="#F2ECE2"/>
  <rect x="161" y="279" width="14" height="73" rx="4" fill="#15151A" opacity="0.42"/>
  <rect x="228" y="279" width="14" height="73" rx="4" fill="#15151A" opacity="0.42"/>
  <rect x="295" y="279" width="14" height="73" rx="4" fill="#15151A" opacity="0.42"/>
  <rect x="362" y="279" width="14" height="73" rx="4" fill="#15151A" opacity="0.42"/>
  <rect x="115" y="180" width="34" height="34" rx="6" fill="#FF3864"/>
  <rect x="149" y="180" width="34" height="34" rx="6" fill="#39C7D8"/>
  <rect x="183" y="180" width="34" height="34" rx="6" fill="#FF7A1A"/>
  <rect x="251" y="180" width="34" height="34" rx="6" fill="#F2ECE2"/>
  <rect x="285" y="180" width="34" height="34" rx="6" fill="#39C7D8"/>
  <rect x="319" y="180" width="34" height="34" rx="6" fill="#FF3864"/>
  <rect x="353" y="180" width="34" height="34" rx="6" fill="#FF7A1A"/>
  <rect x="387" y="180" width="34" height="34" rx="6" fill="#F2ECE2"/>
  <rect x="166" y="214" width="34" height="34" rx="6" fill="#F2ECE2"/>
  <rect x="200" y="214" width="34" height="34" rx="6" fill="#39C7D8"/>
  <rect x="234" y="214" width="34" height="34" rx="6" fill="#FF3864"/>
  <rect x="268" y="214" width="34" height="34" rx="6" fill="#FF7A1A"/>
  <rect x="302" y="214" width="34" height="34" rx="6" fill="#F2ECE2"/>
  <rect x="370" y="214" width="34" height="34" rx="6" fill="#39C7D8"/>
  <rect x="398" y="253" width="30" height="30" rx="6" fill="#FF3864"/>
  <rect x="83" y="237" width="30" height="30" rx="6" fill="#39C7D8"/>
  <rect x="232" y="88" width="34" height="34" rx="6" fill="#FF3864"/>
  <rect x="266" y="88" width="34" height="34" rx="6" fill="#39C7D8"/>
  <rect x="300" y="88" width="34" height="34" rx="6" fill="#FF7A1A"/>
  <rect x="198" y="122" width="34" height="34" rx="6" fill="#39C7D8"/>
  <rect x="334" y="122" width="34" height="34" rx="6" fill="#FF3864"/>
</svg>
